<?xml version="1.0" standalone="no"?>
<!DOCTYPE svg PUBLIC "-//W3C//DTD SVG 20010904//EN"
 "http://www.w3.org/TR/2001/REC-SVG-20010904/DTD/svg10.dtd">
<svg version="1.0" xmlns="http://www.w3.org/2000/svg"
 width="16.000000pt" height="16.000000pt" viewBox="0 0 16.000000 16.000000"
 preserveAspectRatio="xMidYMid meet">
<metadata>
Created by potrace 1.11, written by Peter Selinger 2001-2013
</metadata>
<g transform="translate(0.000000,16.000000) scale(0.006154,-0.006154)"
fill="#000000" stroke="none">
<path d="M0 1300 l0 -1300 1300 0 1300 0 0 1300 0 1300 -1300 0 -1300 0 0
-1300z m945 676 c51 -25 118 -87 443 -410 l382 -380 0 352 0 352 45 0 45 0 0
45 0 45 157 0 156 0 -6 -482 c-5 -424 -8 -489 -23 -533 -13 -38 -40 -73 -112
-147 -113 -117 -164 -142 -272 -136 -116 6 -128 16 -555 434 l-390 382 -3
-354 -2 -354 -45 0 -45 0 0 -45 0 -45 -150 0 -150 0 0 498 0 497 24 50 c33 72
185 215 257 244 76 30 165 25 244 -13z"/>
</g>
</svg>
