<?xml version="1.0" encoding="utf-8"?>
<!-- Generator: Adobe Illustrator 15.1.0, SVG Export Plug-In . SVG Version: 6.00 Build 0)  -->
<!DOCTYPE svg PUBLIC "-//W3C//DTD SVG 1.1//EN" "http://www.w3.org/Graphics/SVG/1.1/DTD/svg11.dtd">
<svg version="1.1" id="Layer_1" xmlns="http://www.w3.org/2000/svg" xmlns:xlink="http://www.w3.org/1999/xlink" x="0px" y="0px"
	 width="48px" height="48px" viewBox="0 0 48 48" enable-background="new 0 0 48 48" xml:space="preserve">
<g>
	<path fill="#ED1968" d="M11.342-0.041v21.17c0,2.689-2.539,4.868-5.671,4.868l0,0C2.539,25.997,0,23.818,0,21.129v-21.17H11.342z"
		/>
	<path fill="#ED1968" d="M20.271-0.031v29.39c0,3.733-2.539,6.759-5.671,6.759l0,0c-3.132,0-5.671-3.025-5.671-6.759v-29.39H20.271z
		"/>
	<path fill="#ED1968" d="M29.254-0.038v15.606c0,1.982-2.539,3.589-5.671,3.589l0,0c-3.132,0-5.671-1.606-5.671-3.589V-0.038H29.254
		z"/>
	<path fill="#ED1968" d="M34.926-0.027v27.354c0,3.476-2.539,6.292-5.672,6.292l0,0c-3.131,0-5.671-2.816-5.671-6.292V-0.027H34.926
		z"/>
	<path fill="#ED1968" d="M44.557-0.004v32.892c0,4.178-2.539,7.564-5.67,7.564l0,0c-3.133,0-5.672-3.387-5.672-7.564V-0.004H44.557z
		"/>
	<path fill="#ED1968" d="M48-0.06v26.019c0,3.305-2.539,5.984-5.67,5.984l0,0c-3.133,0-5.672-2.68-5.672-5.984V-0.06H48z"/>
</g>
</svg>
